<mxfile host="app.diagrams.net" modified="2023-08-04T09:02:45.807Z" agent="Mozilla/5.0 (Windows NT 10.0; Win64; x64) AppleWebKit/537.36 (KHTML, like Gecko) Chrome/110.0.0.0 Safari/537.36" etag="LPkZs9pkK_mXbv19JWih" version="21.6.6" type="github">
  <diagram name="Page-1" id="c7558073-3199-34d8-9f00-42111426c3f3">
    <mxGraphModel dx="1434" dy="764" grid="1" gridSize="10" guides="1" tooltips="1" connect="1" arrows="1" fold="1" page="1" pageScale="1" pageWidth="826" pageHeight="1169" background="none" math="0" shadow="0">
      <root>
        <mxCell id="0" />
        <mxCell id="1" parent="0" />
        <mxCell id="14" value="accounting-data" style="whiteSpace=wrap;align=center;verticalAlign=middle;fontStyle=1;strokeWidth=1;fillColor=#fff2cc;rounded=0;glass=0;shadow=0;fontFamily=Helvetica;labelBackgroundColor=none;labelBorderColor=none;strokeColor=#d6b656;" parent="1" vertex="1">
          <mxGeometry x="65" y="506" width="90" height="60" as="geometry" />
        </mxCell>
        <mxCell id="AxtVGg7IYcrfAcfqh8lZ-103" value="accounting-engine" style="whiteSpace=wrap;align=center;verticalAlign=middle;fontStyle=1;strokeWidth=1;fillColor=#fff2cc;rounded=0;glass=0;shadow=0;fontFamily=Helvetica;labelBackgroundColor=none;labelBorderColor=none;strokeColor=#d6b656;" parent="1" vertex="1">
          <mxGeometry x="279" y="506" width="90" height="60" as="geometry" />
        </mxCell>
        <mxCell id="AxtVGg7IYcrfAcfqh8lZ-104" value="dpm-manager" style="whiteSpace=wrap;align=center;verticalAlign=middle;fontStyle=1;strokeWidth=1;fillColor=#fff2cc;rounded=0;glass=0;shadow=0;fontFamily=Helvetica;labelBackgroundColor=none;labelBorderColor=none;strokeColor=#d6b656;" parent="1" vertex="1">
          <mxGeometry x="511" y="506" width="90" height="60" as="geometry" />
        </mxCell>
        <mxCell id="AxtVGg7IYcrfAcfqh8lZ-105" value="dpm-account" style="whiteSpace=wrap;align=center;verticalAlign=middle;fontStyle=1;strokeWidth=1;fillColor=#fff2cc;rounded=0;glass=0;shadow=0;fontFamily=Helvetica;labelBackgroundColor=none;labelBorderColor=none;strokeColor=#d6b656;" parent="1" vertex="1">
          <mxGeometry x="511" y="650" width="90" height="60" as="geometry" />
        </mxCell>
        <mxCell id="AxtVGg7IYcrfAcfqh8lZ-106" value="ma" style="whiteSpace=wrap;align=center;verticalAlign=middle;fontStyle=1;strokeWidth=1;fillColor=#fff2cc;rounded=0;glass=0;shadow=0;fontFamily=Helvetica;labelBackgroundColor=none;labelBorderColor=none;strokeColor=#d6b656;" parent="1" vertex="1">
          <mxGeometry x="511" y="360" width="90" height="60" as="geometry" />
        </mxCell>
        <mxCell id="AxtVGg7IYcrfAcfqh8lZ-107" value="accounting-check" style="whiteSpace=wrap;align=center;verticalAlign=middle;fontStyle=1;strokeWidth=1;fillColor=#d5e8d4;rounded=0;strokeColor=#82b366;glass=0;shadow=0;fontFamily=Helvetica;labelBackgroundColor=none;labelBorderColor=none;" parent="1" vertex="1">
          <mxGeometry x="511" y="950" width="90" height="60" as="geometry" />
        </mxCell>
        <mxCell id="AxtVGg7IYcrfAcfqh8lZ-108" value="balance-engine" style="whiteSpace=wrap;align=center;verticalAlign=middle;fontStyle=1;strokeWidth=1;fillColor=#d5e8d4;rounded=0;strokeColor=#82b366;glass=0;shadow=0;fontFamily=Helvetica;labelBackgroundColor=none;labelBorderColor=none;" parent="1" vertex="1">
          <mxGeometry x="511" y="790" width="90" height="60" as="geometry" />
        </mxCell>
        <mxCell id="AxtVGg7IYcrfAcfqh8lZ-109" value="accounting-job" style="whiteSpace=wrap;align=center;verticalAlign=middle;fontStyle=1;strokeWidth=1;fillColor=#d5e8d4;rounded=0;strokeColor=#82b366;glass=0;shadow=0;fontFamily=Helvetica;labelBackgroundColor=none;labelBorderColor=none;" parent="1" vertex="1">
          <mxGeometry x="279" y="790" width="90" height="60" as="geometry" />
        </mxCell>
        <mxCell id="AxtVGg7IYcrfAcfqh8lZ-115" value="&lt;b&gt;RabbitMQ&lt;/b&gt;" style="shape=cylinder3;whiteSpace=wrap;html=1;boundedLbl=1;backgroundOutline=1;size=15;direction=north;flipH=1;fillColor=#f8cecc;strokeColor=#b85450;" parent="1" vertex="1">
          <mxGeometry x="54" y="342" width="109" height="60" as="geometry" />
        </mxCell>
        <mxCell id="AxtVGg7IYcrfAcfqh8lZ-116" value="&lt;b&gt;accounting-data&lt;/b&gt;" style="shape=cylinder3;whiteSpace=wrap;html=1;boundedLbl=1;backgroundOutline=1;size=15;direction=north;flipH=1;fillColor=#dae8fc;strokeColor=#6c8ebf;" parent="1" vertex="1">
          <mxGeometry x="55" y="650" width="110" height="60" as="geometry" />
        </mxCell>
        <mxCell id="AxtVGg7IYcrfAcfqh8lZ-117" value="" style="endArrow=classic;html=1;exitX=0;exitY=0;exitDx=0;exitDy=74.25;exitPerimeter=0;curved=1;entryX=0.25;entryY=0;entryDx=0;entryDy=0;" parent="1" source="AxtVGg7IYcrfAcfqh8lZ-115" target="14" edge="1">
          <mxGeometry width="50" height="50" relative="1" as="geometry">
            <mxPoint x="76" y="450" as="sourcePoint" />
            <mxPoint x="90" y="510" as="targetPoint" />
          </mxGeometry>
        </mxCell>
        <mxCell id="AxtVGg7IYcrfAcfqh8lZ-120" value="1、接收消息" style="edgeLabel;html=1;align=center;verticalAlign=middle;resizable=0;points=[];" parent="AxtVGg7IYcrfAcfqh8lZ-117" vertex="1" connectable="0">
          <mxGeometry x="-0.0987" y="2" relative="1" as="geometry">
            <mxPoint x="-1" y="-18" as="offset" />
          </mxGeometry>
        </mxCell>
        <mxCell id="AxtVGg7IYcrfAcfqh8lZ-121" value="" style="endArrow=classic;html=1;entryX=1;entryY=0.5;entryDx=0;entryDy=0;exitX=0.5;exitY=1;exitDx=0;exitDy=0;entryPerimeter=0;rounded=0;" parent="1" source="14" target="AxtVGg7IYcrfAcfqh8lZ-116" edge="1">
          <mxGeometry width="50" height="50" relative="1" as="geometry">
            <mxPoint x="16" y="484" as="sourcePoint" />
            <mxPoint x="18" y="588" as="targetPoint" />
            <Array as="points" />
          </mxGeometry>
        </mxCell>
        <mxCell id="AxtVGg7IYcrfAcfqh8lZ-125" value="2、保存数据" style="edgeLabel;html=1;align=center;verticalAlign=middle;resizable=0;points=[];" parent="AxtVGg7IYcrfAcfqh8lZ-121" vertex="1" connectable="0">
          <mxGeometry x="-0.1862" y="-2" relative="1" as="geometry">
            <mxPoint as="offset" />
          </mxGeometry>
        </mxCell>
        <mxCell id="AxtVGg7IYcrfAcfqh8lZ-126" value="" style="endArrow=classic;html=1;rounded=0;entryX=0;entryY=0;entryDx=0;entryDy=15;entryPerimeter=0;exitX=0.5;exitY=0;exitDx=0;exitDy=0;" parent="1" source="14" target="AxtVGg7IYcrfAcfqh8lZ-115" edge="1">
          <mxGeometry width="50" height="50" relative="1" as="geometry">
            <mxPoint x="130" y="510" as="sourcePoint" />
            <mxPoint x="296" y="560" as="targetPoint" />
          </mxGeometry>
        </mxCell>
        <mxCell id="AxtVGg7IYcrfAcfqh8lZ-127" value="3、分发事件" style="edgeLabel;html=1;align=center;verticalAlign=middle;resizable=0;points=[];" parent="AxtVGg7IYcrfAcfqh8lZ-126" vertex="1" connectable="0">
          <mxGeometry x="0.0984" y="-2" relative="1" as="geometry">
            <mxPoint x="6" y="11" as="offset" />
          </mxGeometry>
        </mxCell>
        <mxCell id="AxtVGg7IYcrfAcfqh8lZ-128" value="" style="endArrow=classic;html=1;rounded=0;exitX=0.145;exitY=0;exitDx=0;exitDy=4.35;exitPerimeter=0;entryX=0.5;entryY=0;entryDx=0;entryDy=0;" parent="1" source="AxtVGg7IYcrfAcfqh8lZ-115" target="AxtVGg7IYcrfAcfqh8lZ-103" edge="1">
          <mxGeometry width="50" height="50" relative="1" as="geometry">
            <mxPoint x="142" y="402" as="sourcePoint" />
            <mxPoint x="302" y="560" as="targetPoint" />
          </mxGeometry>
        </mxCell>
        <mxCell id="AxtVGg7IYcrfAcfqh8lZ-129" value="4、接收事件" style="edgeLabel;html=1;align=center;verticalAlign=middle;resizable=0;points=[];" parent="AxtVGg7IYcrfAcfqh8lZ-128" vertex="1" connectable="0">
          <mxGeometry x="-0.0502" relative="1" as="geometry">
            <mxPoint x="8" y="3" as="offset" />
          </mxGeometry>
        </mxCell>
        <mxCell id="YqyLxGMj1GTobC0pw4qq-15" value="&lt;b&gt;accounting-engine&lt;/b&gt;" style="shape=cylinder3;whiteSpace=wrap;html=1;boundedLbl=1;backgroundOutline=1;size=15;direction=north;flipH=1;fillColor=#dae8fc;strokeColor=#6c8ebf;" vertex="1" parent="1">
          <mxGeometry x="269" y="650" width="110" height="60" as="geometry" />
        </mxCell>
        <mxCell id="YqyLxGMj1GTobC0pw4qq-16" value="" style="endArrow=classic;html=1;rounded=0;exitX=0.5;exitY=1;exitDx=0;exitDy=0;entryX=1;entryY=0.5;entryDx=0;entryDy=0;entryPerimeter=0;" edge="1" parent="1" source="AxtVGg7IYcrfAcfqh8lZ-103" target="YqyLxGMj1GTobC0pw4qq-15">
          <mxGeometry width="50" height="50" relative="1" as="geometry">
            <mxPoint x="437" y="720" as="sourcePoint" />
            <mxPoint x="487" y="670" as="targetPoint" />
          </mxGeometry>
        </mxCell>
        <mxCell id="YqyLxGMj1GTobC0pw4qq-17" value="5.2、校验/保存数据，生成分录(交易)" style="edgeLabel;html=1;align=center;verticalAlign=middle;resizable=0;points=[];" vertex="1" connectable="0" parent="YqyLxGMj1GTobC0pw4qq-16">
          <mxGeometry x="-0.2778" y="-4" relative="1" as="geometry">
            <mxPoint x="9" y="8" as="offset" />
          </mxGeometry>
        </mxCell>
        <mxCell id="YqyLxGMj1GTobC0pw4qq-19" value="6、检查/创建账户" style="edgeLabel;html=1;align=center;verticalAlign=middle;resizable=0;points=[];" vertex="1" connectable="0" parent="YqyLxGMj1GTobC0pw4qq-16">
          <mxGeometry x="-0.2778" y="-4" relative="1" as="geometry">
            <mxPoint x="114" y="-72" as="offset" />
          </mxGeometry>
        </mxCell>
        <mxCell id="YqyLxGMj1GTobC0pw4qq-23" value="5.1、校验/保存数据，创建会员" style="edgeLabel;html=1;align=center;verticalAlign=middle;resizable=0;points=[];" vertex="1" connectable="0" parent="YqyLxGMj1GTobC0pw4qq-16">
          <mxGeometry x="-0.2778" y="-4" relative="1" as="geometry">
            <mxPoint x="130" y="-142" as="offset" />
          </mxGeometry>
        </mxCell>
        <mxCell id="YqyLxGMj1GTobC0pw4qq-25" value="7、调用dpm记账" style="edgeLabel;html=1;align=center;verticalAlign=middle;resizable=0;points=[];" vertex="1" connectable="0" parent="YqyLxGMj1GTobC0pw4qq-16">
          <mxGeometry x="-0.2778" y="-4" relative="1" as="geometry">
            <mxPoint x="164" y="18" as="offset" />
          </mxGeometry>
        </mxCell>
        <mxCell id="YqyLxGMj1GTobC0pw4qq-18" value="" style="endArrow=classic;html=1;rounded=0;exitX=1;exitY=0.5;exitDx=0;exitDy=0;entryX=0;entryY=0.5;entryDx=0;entryDy=0;" edge="1" parent="1" source="AxtVGg7IYcrfAcfqh8lZ-103" target="AxtVGg7IYcrfAcfqh8lZ-104">
          <mxGeometry width="50" height="50" relative="1" as="geometry">
            <mxPoint x="401" y="760" as="sourcePoint" />
            <mxPoint x="451" y="710" as="targetPoint" />
          </mxGeometry>
        </mxCell>
        <mxCell id="YqyLxGMj1GTobC0pw4qq-20" value="&lt;b&gt;member&lt;/b&gt;" style="shape=cylinder3;whiteSpace=wrap;html=1;boundedLbl=1;backgroundOutline=1;size=15;direction=north;flipH=1;fillColor=#dae8fc;strokeColor=#6c8ebf;" vertex="1" parent="1">
          <mxGeometry x="691" y="360" width="110" height="60" as="geometry" />
        </mxCell>
        <mxCell id="YqyLxGMj1GTobC0pw4qq-21" value="&lt;b&gt;dpm&lt;/b&gt;" style="shape=cylinder3;whiteSpace=wrap;html=1;boundedLbl=1;backgroundOutline=1;size=15;direction=north;flipH=1;fillColor=#dae8fc;strokeColor=#6c8ebf;" vertex="1" parent="1">
          <mxGeometry x="691" y="585" width="110" height="60" as="geometry" />
        </mxCell>
        <mxCell id="YqyLxGMj1GTobC0pw4qq-22" value="" style="endArrow=classic;html=1;rounded=0;exitX=1;exitY=0;exitDx=0;exitDy=0;entryX=0;entryY=0.5;entryDx=0;entryDy=0;" edge="1" parent="1" source="AxtVGg7IYcrfAcfqh8lZ-103" target="AxtVGg7IYcrfAcfqh8lZ-106">
          <mxGeometry width="50" height="50" relative="1" as="geometry">
            <mxPoint x="401" y="560" as="sourcePoint" />
            <mxPoint x="451" y="510" as="targetPoint" />
          </mxGeometry>
        </mxCell>
        <mxCell id="YqyLxGMj1GTobC0pw4qq-24" value="" style="endArrow=classic;html=1;rounded=0;exitX=1;exitY=1;exitDx=0;exitDy=0;entryX=0.5;entryY=0;entryDx=0;entryDy=0;" edge="1" parent="1" source="AxtVGg7IYcrfAcfqh8lZ-103" target="AxtVGg7IYcrfAcfqh8lZ-105">
          <mxGeometry width="50" height="50" relative="1" as="geometry">
            <mxPoint x="401" y="560" as="sourcePoint" />
            <mxPoint x="451" y="510" as="targetPoint" />
          </mxGeometry>
        </mxCell>
        <mxCell id="YqyLxGMj1GTobC0pw4qq-27" value="" style="endArrow=classic;html=1;rounded=0;entryX=0.5;entryY=1;entryDx=0;entryDy=0;entryPerimeter=0;exitX=1;exitY=0.5;exitDx=0;exitDy=0;" edge="1" parent="1" source="AxtVGg7IYcrfAcfqh8lZ-106" target="YqyLxGMj1GTobC0pw4qq-20">
          <mxGeometry width="50" height="50" relative="1" as="geometry">
            <mxPoint x="401" y="660" as="sourcePoint" />
            <mxPoint x="451" y="610" as="targetPoint" />
          </mxGeometry>
        </mxCell>
        <mxCell id="YqyLxGMj1GTobC0pw4qq-28" value="" style="endArrow=classic;html=1;rounded=0;exitX=1;exitY=0.5;exitDx=0;exitDy=0;entryX=0.855;entryY=1;entryDx=0;entryDy=-4.35;entryPerimeter=0;" edge="1" parent="1" source="AxtVGg7IYcrfAcfqh8lZ-104" target="YqyLxGMj1GTobC0pw4qq-21">
          <mxGeometry width="50" height="50" relative="1" as="geometry">
            <mxPoint x="401" y="660" as="sourcePoint" />
            <mxPoint x="451" y="610" as="targetPoint" />
          </mxGeometry>
        </mxCell>
        <mxCell id="YqyLxGMj1GTobC0pw4qq-29" value="" style="endArrow=classic;html=1;rounded=0;exitX=1;exitY=0.5;exitDx=0;exitDy=0;entryX=0.145;entryY=1;entryDx=0;entryDy=-4.35;entryPerimeter=0;" edge="1" parent="1" source="AxtVGg7IYcrfAcfqh8lZ-105" target="YqyLxGMj1GTobC0pw4qq-21">
          <mxGeometry width="50" height="50" relative="1" as="geometry">
            <mxPoint x="681" y="740" as="sourcePoint" />
            <mxPoint x="731" y="690" as="targetPoint" />
          </mxGeometry>
        </mxCell>
        <mxCell id="YqyLxGMj1GTobC0pw4qq-30" value="&lt;b&gt;accounting-check&lt;/b&gt;" style="shape=cylinder3;whiteSpace=wrap;html=1;boundedLbl=1;backgroundOutline=1;size=15;direction=north;flipH=1;fillColor=#dae8fc;strokeColor=#6c8ebf;" vertex="1" parent="1">
          <mxGeometry x="691" y="950" width="110" height="60" as="geometry" />
        </mxCell>
        <mxCell id="YqyLxGMj1GTobC0pw4qq-35" value="" style="endArrow=classic;html=1;rounded=0;entryX=1;entryY=0.5;entryDx=0;entryDy=0;exitX=0;exitY=0.5;exitDx=0;exitDy=0;" edge="1" parent="1" source="AxtVGg7IYcrfAcfqh8lZ-103" target="14">
          <mxGeometry width="50" height="50" relative="1" as="geometry">
            <mxPoint x="360" y="610" as="sourcePoint" />
            <mxPoint x="410" y="560" as="targetPoint" />
          </mxGeometry>
        </mxCell>
        <mxCell id="YqyLxGMj1GTobC0pw4qq-36" value="8、修改处理状态" style="edgeLabel;html=1;align=center;verticalAlign=middle;resizable=0;points=[];" vertex="1" connectable="0" parent="YqyLxGMj1GTobC0pw4qq-35">
          <mxGeometry x="-0.2623" y="-1" relative="1" as="geometry">
            <mxPoint x="-12" as="offset" />
          </mxGeometry>
        </mxCell>
        <mxCell id="YqyLxGMj1GTobC0pw4qq-37" value="" style="endArrow=classic;html=1;rounded=0;exitX=0.5;exitY=0;exitDx=0;exitDy=0;entryX=0;entryY=0.5;entryDx=0;entryDy=0;entryPerimeter=0;" edge="1" parent="1" source="AxtVGg7IYcrfAcfqh8lZ-109" target="YqyLxGMj1GTobC0pw4qq-15">
          <mxGeometry width="50" height="50" relative="1" as="geometry">
            <mxPoint x="360" y="710" as="sourcePoint" />
            <mxPoint x="410" y="660" as="targetPoint" />
          </mxGeometry>
        </mxCell>
        <mxCell id="YqyLxGMj1GTobC0pw4qq-38" value="获取待重试数据（余额不足/会员不存）" style="edgeLabel;html=1;align=center;verticalAlign=middle;resizable=0;points=[];" vertex="1" connectable="0" parent="YqyLxGMj1GTobC0pw4qq-37">
          <mxGeometry x="0.075" relative="1" as="geometry">
            <mxPoint x="-24" y="3" as="offset" />
          </mxGeometry>
        </mxCell>
        <mxCell id="YqyLxGMj1GTobC0pw4qq-39" value="" style="endArrow=classic;html=1;rounded=0;exitX=1;exitY=0.5;exitDx=0;exitDy=0;entryX=0.5;entryY=1;entryDx=0;entryDy=0;" edge="1" parent="1" source="AxtVGg7IYcrfAcfqh8lZ-109" target="AxtVGg7IYcrfAcfqh8lZ-105">
          <mxGeometry width="50" height="50" relative="1" as="geometry">
            <mxPoint x="360" y="710" as="sourcePoint" />
            <mxPoint x="410" y="660" as="targetPoint" />
          </mxGeometry>
        </mxCell>
        <mxCell id="YqyLxGMj1GTobC0pw4qq-40" value="发起记账重试" style="edgeLabel;html=1;align=center;verticalAlign=middle;resizable=0;points=[];" vertex="1" connectable="0" parent="YqyLxGMj1GTobC0pw4qq-39">
          <mxGeometry x="0.0245" relative="1" as="geometry">
            <mxPoint as="offset" />
          </mxGeometry>
        </mxCell>
        <mxCell id="YqyLxGMj1GTobC0pw4qq-41" value="" style="endArrow=classic;html=1;rounded=0;exitX=1;exitY=0.5;exitDx=0;exitDy=0;entryX=0;entryY=0.5;entryDx=0;entryDy=0;entryPerimeter=0;" edge="1" parent="1" source="AxtVGg7IYcrfAcfqh8lZ-108" target="YqyLxGMj1GTobC0pw4qq-21">
          <mxGeometry width="50" height="50" relative="1" as="geometry">
            <mxPoint x="360" y="710" as="sourcePoint" />
            <mxPoint x="410" y="660" as="targetPoint" />
          </mxGeometry>
        </mxCell>
        <mxCell id="YqyLxGMj1GTobC0pw4qq-42" value="D+1生成余额快照" style="edgeLabel;html=1;align=center;verticalAlign=middle;resizable=0;points=[];" vertex="1" connectable="0" parent="YqyLxGMj1GTobC0pw4qq-41">
          <mxGeometry x="-0.1878" y="-4" relative="1" as="geometry">
            <mxPoint as="offset" />
          </mxGeometry>
        </mxCell>
        <mxCell id="YqyLxGMj1GTobC0pw4qq-43" value="数据源：&#xa;1、DB：accounting-data&#xa;2、DB：accounting-engine&#xa;3、DB：dpm&#xa;4、File：阿里OSS" style="whiteSpace=wrap;align=left;verticalAlign=middle;fontStyle=1;strokeWidth=1;rounded=0;glass=0;shadow=0;fontFamily=Helvetica;labelBackgroundColor=none;labelBorderColor=none;dashed=1;" vertex="1" parent="1">
          <mxGeometry x="77" y="935" width="173" height="90" as="geometry" />
        </mxCell>
        <mxCell id="YqyLxGMj1GTobC0pw4qq-44" value="" style="endArrow=classic;html=1;rounded=0;exitX=1;exitY=0.5;exitDx=0;exitDy=0;entryX=0;entryY=0.5;entryDx=0;entryDy=0;" edge="1" parent="1" source="YqyLxGMj1GTobC0pw4qq-43" target="AxtVGg7IYcrfAcfqh8lZ-107">
          <mxGeometry width="50" height="50" relative="1" as="geometry">
            <mxPoint x="360" y="810" as="sourcePoint" />
            <mxPoint x="410" y="760" as="targetPoint" />
          </mxGeometry>
        </mxCell>
        <mxCell id="YqyLxGMj1GTobC0pw4qq-45" value="" style="endArrow=classic;html=1;rounded=0;entryX=0.5;entryY=1;entryDx=0;entryDy=0;entryPerimeter=0;exitX=1;exitY=0.5;exitDx=0;exitDy=0;" edge="1" parent="1" source="AxtVGg7IYcrfAcfqh8lZ-107" target="YqyLxGMj1GTobC0pw4qq-30">
          <mxGeometry width="50" height="50" relative="1" as="geometry">
            <mxPoint x="360" y="1010" as="sourcePoint" />
            <mxPoint x="410" y="960" as="targetPoint" />
          </mxGeometry>
        </mxCell>
        <mxCell id="YqyLxGMj1GTobC0pw4qq-46" value="&lt;b&gt;&lt;span style=&quot;background-color: initial;&quot;&gt;对账步骤：&lt;br&gt;1、根据对账配置生成对账任务&lt;/span&gt;&lt;br&gt;&lt;span style=&quot;background-color: initial;&quot;&gt;2、根据对账任务配置执行对账&lt;/span&gt;&lt;br&gt;&lt;span style=&quot;background-color: initial;&quot;&gt;3、保存对账结果&lt;/span&gt;&lt;/b&gt;" style="shape=document;whiteSpace=wrap;html=1;boundedLbl=1;align=left;" vertex="1" parent="1">
          <mxGeometry x="511" y="1050" width="199" height="100" as="geometry" />
        </mxCell>
        <mxCell id="YqyLxGMj1GTobC0pw4qq-47" value="" style="rounded=0;whiteSpace=wrap;html=1;strokeColor=#e47011;dashed=1;" vertex="1" parent="1">
          <mxGeometry x="481" y="1310" width="239" height="190" as="geometry" />
        </mxCell>
        <mxCell id="YqyLxGMj1GTobC0pw4qq-48" value="" style="rounded=0;whiteSpace=wrap;html=1;strokeColor=#180ae6;dashed=1;" vertex="1" parent="1">
          <mxGeometry x="111" y="1310" width="269" height="190" as="geometry" />
        </mxCell>
        <mxCell id="YqyLxGMj1GTobC0pw4qq-50" value="" style="rounded=0;whiteSpace=wrap;html=1;strokeColor=#d36c17;dashed=1;" vertex="1" parent="1">
          <mxGeometry x="480" y="1640" width="240" height="190" as="geometry" />
        </mxCell>
        <mxCell id="YqyLxGMj1GTobC0pw4qq-51" value="维金运维环境" style="text;html=1;strokeColor=none;fillColor=none;align=center;verticalAlign=middle;whiteSpace=wrap;rounded=0;" vertex="1" parent="1">
          <mxGeometry x="211" y="1280" width="80" height="30" as="geometry" />
        </mxCell>
        <mxCell id="YqyLxGMj1GTobC0pw4qq-52" value="阿里测试环境" style="text;html=1;strokeColor=none;fillColor=none;align=center;verticalAlign=middle;whiteSpace=wrap;rounded=0;" vertex="1" parent="1">
          <mxGeometry x="572" y="1280" width="90" height="30" as="geometry" />
        </mxCell>
        <mxCell id="YqyLxGMj1GTobC0pw4qq-53" value="阿里生产环境" style="text;html=1;strokeColor=none;fillColor=none;align=center;verticalAlign=middle;whiteSpace=wrap;rounded=0;" vertex="1" parent="1">
          <mxGeometry x="555" y="1610" width="90" height="30" as="geometry" />
        </mxCell>
        <mxCell id="YqyLxGMj1GTobC0pw4qq-54" value="SVN" style="rounded=1;whiteSpace=wrap;html=1;" vertex="1" parent="1">
          <mxGeometry x="140" y="1380" width="80" height="30" as="geometry" />
        </mxCell>
        <mxCell id="YqyLxGMj1GTobC0pw4qq-55" value="Jenkins" style="rounded=1;whiteSpace=wrap;html=1;" vertex="1" parent="1">
          <mxGeometry x="273" y="1380" width="80" height="30" as="geometry" />
        </mxCell>
        <mxCell id="YqyLxGMj1GTobC0pw4qq-56" value="镜像仓库" style="rounded=1;whiteSpace=wrap;html=1;" vertex="1" parent="1">
          <mxGeometry x="511" y="1392" width="80" height="30" as="geometry" />
        </mxCell>
        <mxCell id="YqyLxGMj1GTobC0pw4qq-57" value="K8S集群" style="rounded=1;whiteSpace=wrap;html=1;" vertex="1" parent="1">
          <mxGeometry x="614" y="1350" width="80" height="110" as="geometry" />
        </mxCell>
        <mxCell id="YqyLxGMj1GTobC0pw4qq-58" value="ECS(Docker环境)" style="rounded=1;whiteSpace=wrap;html=1;" vertex="1" parent="1">
          <mxGeometry x="511" y="1334" width="80" height="30" as="geometry" />
        </mxCell>
        <mxCell id="YqyLxGMj1GTobC0pw4qq-59" value="镜像仓库" style="rounded=1;whiteSpace=wrap;html=1;" vertex="1" parent="1">
          <mxGeometry x="520" y="1685" width="80" height="30" as="geometry" />
        </mxCell>
        <mxCell id="YqyLxGMj1GTobC0pw4qq-60" value="K8S集群" style="rounded=1;whiteSpace=wrap;html=1;" vertex="1" parent="1">
          <mxGeometry x="620" y="1680" width="80" height="110" as="geometry" />
        </mxCell>
        <mxCell id="YqyLxGMj1GTobC0pw4qq-61" value="" style="shape=actor;whiteSpace=wrap;html=1;" vertex="1" parent="1">
          <mxGeometry x="160" y="1578" width="40" height="60" as="geometry" />
        </mxCell>
        <mxCell id="YqyLxGMj1GTobC0pw4qq-64" value="" style="endArrow=classic;html=1;rounded=0;exitX=0.5;exitY=0;exitDx=0;exitDy=0;" edge="1" parent="1" source="YqyLxGMj1GTobC0pw4qq-61" target="YqyLxGMj1GTobC0pw4qq-54">
          <mxGeometry width="50" height="50" relative="1" as="geometry">
            <mxPoint x="391" y="1510" as="sourcePoint" />
            <mxPoint x="441" y="1460" as="targetPoint" />
          </mxGeometry>
        </mxCell>
        <mxCell id="YqyLxGMj1GTobC0pw4qq-65" value="1 svn commit" style="edgeLabel;html=1;align=center;verticalAlign=middle;resizable=0;points=[];" vertex="1" connectable="0" parent="YqyLxGMj1GTobC0pw4qq-64">
          <mxGeometry x="0.018" y="2" relative="1" as="geometry">
            <mxPoint y="-6" as="offset" />
          </mxGeometry>
        </mxCell>
        <mxCell id="YqyLxGMj1GTobC0pw4qq-66" value="K8S集群&lt;br&gt;控制台" style="rounded=1;whiteSpace=wrap;html=1;" vertex="1" parent="1">
          <mxGeometry x="511" y="1455" width="80" height="30" as="geometry" />
        </mxCell>
        <mxCell id="YqyLxGMj1GTobC0pw4qq-67" value="K8S集群&lt;br&gt;控制台" style="rounded=1;whiteSpace=wrap;html=1;" vertex="1" parent="1">
          <mxGeometry x="520" y="1760" width="80" height="30" as="geometry" />
        </mxCell>
        <mxCell id="YqyLxGMj1GTobC0pw4qq-68" value="" style="endArrow=classic;html=1;rounded=0;entryX=0.5;entryY=1;entryDx=0;entryDy=0;exitX=0.5;exitY=0;exitDx=0;exitDy=0;" edge="1" parent="1" source="YqyLxGMj1GTobC0pw4qq-76" target="YqyLxGMj1GTobC0pw4qq-55">
          <mxGeometry width="50" height="50" relative="1" as="geometry">
            <mxPoint x="241" y="1680" as="sourcePoint" />
            <mxPoint x="451" y="1560" as="targetPoint" />
          </mxGeometry>
        </mxCell>
        <mxCell id="YqyLxGMj1GTobC0pw4qq-70" value="2 build" style="edgeLabel;html=1;align=center;verticalAlign=middle;resizable=0;points=[];" vertex="1" connectable="0" parent="YqyLxGMj1GTobC0pw4qq-68">
          <mxGeometry x="0.2867" y="-5" relative="1" as="geometry">
            <mxPoint x="-1" y="16" as="offset" />
          </mxGeometry>
        </mxCell>
        <mxCell id="YqyLxGMj1GTobC0pw4qq-71" value="" style="endArrow=classic;html=1;rounded=0;exitX=1;exitY=0.5;exitDx=0;exitDy=0;entryX=0;entryY=0.5;entryDx=0;entryDy=0;" edge="1" parent="1" source="YqyLxGMj1GTobC0pw4qq-55" target="YqyLxGMj1GTobC0pw4qq-58">
          <mxGeometry width="50" height="50" relative="1" as="geometry">
            <mxPoint x="391" y="1610" as="sourcePoint" />
            <mxPoint x="441" y="1560" as="targetPoint" />
          </mxGeometry>
        </mxCell>
        <mxCell id="YqyLxGMj1GTobC0pw4qq-72" value="2.2 docker build" style="edgeLabel;html=1;align=center;verticalAlign=middle;resizable=0;points=[];" vertex="1" connectable="0" parent="YqyLxGMj1GTobC0pw4qq-71">
          <mxGeometry x="-0.0594" relative="1" as="geometry">
            <mxPoint x="16" y="-9" as="offset" />
          </mxGeometry>
        </mxCell>
        <mxCell id="YqyLxGMj1GTobC0pw4qq-73" value="" style="endArrow=classic;html=1;rounded=0;exitX=1;exitY=0.5;exitDx=0;exitDy=0;entryX=0;entryY=0.5;entryDx=0;entryDy=0;" edge="1" parent="1" source="YqyLxGMj1GTobC0pw4qq-55" target="YqyLxGMj1GTobC0pw4qq-56">
          <mxGeometry width="50" height="50" relative="1" as="geometry">
            <mxPoint x="391" y="1610" as="sourcePoint" />
            <mxPoint x="441" y="1560" as="targetPoint" />
          </mxGeometry>
        </mxCell>
        <mxCell id="YqyLxGMj1GTobC0pw4qq-74" value="2.3 docker push" style="edgeLabel;html=1;align=center;verticalAlign=middle;resizable=0;points=[];" vertex="1" connectable="0" parent="YqyLxGMj1GTobC0pw4qq-73">
          <mxGeometry x="0.1162" y="2" relative="1" as="geometry">
            <mxPoint x="5" y="11" as="offset" />
          </mxGeometry>
        </mxCell>
        <mxCell id="YqyLxGMj1GTobC0pw4qq-76" value="" style="shape=actor;whiteSpace=wrap;html=1;" vertex="1" parent="1">
          <mxGeometry x="293" y="1579" width="40" height="60" as="geometry" />
        </mxCell>
        <mxCell id="YqyLxGMj1GTobC0pw4qq-77" value="" style="endArrow=classic;html=1;rounded=0;exitX=1;exitY=0.5;exitDx=0;exitDy=0;entryX=0;entryY=0.5;entryDx=0;entryDy=0;" edge="1" parent="1" source="YqyLxGMj1GTobC0pw4qq-54" target="YqyLxGMj1GTobC0pw4qq-55">
          <mxGeometry width="50" height="50" relative="1" as="geometry">
            <mxPoint x="391" y="1610" as="sourcePoint" />
            <mxPoint x="441" y="1560" as="targetPoint" />
          </mxGeometry>
        </mxCell>
        <mxCell id="YqyLxGMj1GTobC0pw4qq-78" value="2.1 svn update/ package" style="edgeLabel;html=1;align=center;verticalAlign=middle;resizable=0;points=[];" vertex="1" connectable="0" parent="YqyLxGMj1GTobC0pw4qq-77">
          <mxGeometry x="-0.0943" y="-3" relative="1" as="geometry">
            <mxPoint y="-28" as="offset" />
          </mxGeometry>
        </mxCell>
        <mxCell id="YqyLxGMj1GTobC0pw4qq-79" value="" style="endArrow=classic;html=1;rounded=0;exitX=0.9;exitY=0.5;exitDx=0;exitDy=0;exitPerimeter=0;entryX=0;entryY=0.5;entryDx=0;entryDy=0;" edge="1" parent="1" source="YqyLxGMj1GTobC0pw4qq-76" target="YqyLxGMj1GTobC0pw4qq-66">
          <mxGeometry width="50" height="50" relative="1" as="geometry">
            <mxPoint x="391" y="1610" as="sourcePoint" />
            <mxPoint x="441" y="1560" as="targetPoint" />
          </mxGeometry>
        </mxCell>
        <mxCell id="YqyLxGMj1GTobC0pw4qq-80" value="3 更新测试环境" style="edgeLabel;html=1;align=center;verticalAlign=middle;resizable=0;points=[];" vertex="1" connectable="0" parent="YqyLxGMj1GTobC0pw4qq-79">
          <mxGeometry x="-0.0373" y="-4" relative="1" as="geometry">
            <mxPoint as="offset" />
          </mxGeometry>
        </mxCell>
        <mxCell id="YqyLxGMj1GTobC0pw4qq-83" value="" style="endArrow=classic;html=1;rounded=0;exitX=1;exitY=0.75;exitDx=0;exitDy=0;entryX=0;entryY=0.5;entryDx=0;entryDy=0;" edge="1" parent="1" source="YqyLxGMj1GTobC0pw4qq-76" target="YqyLxGMj1GTobC0pw4qq-59">
          <mxGeometry width="50" height="50" relative="1" as="geometry">
            <mxPoint x="881" y="1510" as="sourcePoint" />
            <mxPoint x="931" y="1460" as="targetPoint" />
          </mxGeometry>
        </mxCell>
        <mxCell id="YqyLxGMj1GTobC0pw4qq-86" value="4 tag/push" style="edgeLabel;html=1;align=center;verticalAlign=middle;resizable=0;points=[];" vertex="1" connectable="0" parent="YqyLxGMj1GTobC0pw4qq-83">
          <mxGeometry x="-0.2857" y="-2" relative="1" as="geometry">
            <mxPoint as="offset" />
          </mxGeometry>
        </mxCell>
        <mxCell id="YqyLxGMj1GTobC0pw4qq-87" value="" style="endArrow=classic;html=1;rounded=0;exitX=0.75;exitY=1;exitDx=0;exitDy=0;entryX=0;entryY=0.5;entryDx=0;entryDy=0;" edge="1" parent="1" source="YqyLxGMj1GTobC0pw4qq-76" target="YqyLxGMj1GTobC0pw4qq-67">
          <mxGeometry width="50" height="50" relative="1" as="geometry">
            <mxPoint x="461" y="1630" as="sourcePoint" />
            <mxPoint x="511" y="1580" as="targetPoint" />
          </mxGeometry>
        </mxCell>
        <mxCell id="YqyLxGMj1GTobC0pw4qq-88" value="5 更新生产环境" style="edgeLabel;html=1;align=center;verticalAlign=middle;resizable=0;points=[];" vertex="1" connectable="0" parent="YqyLxGMj1GTobC0pw4qq-87">
          <mxGeometry x="-0.2793" relative="1" as="geometry">
            <mxPoint x="17" y="12" as="offset" />
          </mxGeometry>
        </mxCell>
      </root>
    </mxGraphModel>
  </diagram>
</mxfile>
